<?xml version="1.0" encoding="UTF-8" standalone="no"?>
<!-- Created with Inkscape (http://www.inkscape.org/) -->

<svg
   xmlns:dc="http://purl.org/dc/elements/1.1/"
   xmlns:cc="http://creativecommons.org/ns#"
   xmlns:rdf="http://www.w3.org/1999/02/22-rdf-syntax-ns#"
   xmlns:svg="http://www.w3.org/2000/svg"
   xmlns="http://www.w3.org/2000/svg"
   xmlns:xlink="http://www.w3.org/1999/xlink"
   xmlns:sodipodi="http://sodipodi.sourceforge.net/DTD/sodipodi-0.dtd"
   xmlns:inkscape="http://www.inkscape.org/namespaces/inkscape"
   width="1000"
   height="1000"
   viewBox="0 0 1000 1000"
   id="svg4333"
   version="1.1"
   inkscape:version="0.91 r13725"
   style="enable-background:new"
   enable-background="new"
   sodipodi:docname="sun envisioned.svg">
  <defs
     id="defs4335">
    <linearGradient
       inkscape:collect="always"
       id="linearGradient10288">
      <stop
         style="stop-color:#ffff00;stop-opacity:1"
         offset="0"
         id="stop10290" />
      <stop
         style="stop-color:#ff7f2a;stop-opacity:1"
         offset="1"
         id="stop10292" />
    </linearGradient>
    <linearGradient
       id="linearGradient10268">
      <stop
         style="stop-color:#888888;stop-opacity:1;"
         offset="0"
         id="stop10282" />
    </linearGradient>
    <linearGradient
       id="linearGradient10284">
      <stop
         id="stop10276"
         offset="0"
         style="stop-color:#888888;stop-opacity:1;" />
    </linearGradient>
    <linearGradient
       id="linearGradient10278">
      <stop
         style="stop-color:#888888;stop-opacity:1;"
         offset="0"
         id="stop10270" />
    </linearGradient>
    <inkscape:perspective
       sodipodi:type="inkscape:persp3d"
       inkscape:vp_x="0 : 526.18109 : 1"
       inkscape:vp_y="0 : 999.99998 : 0"
       inkscape:vp_z="526.09448 : 800.18108 : 1"
       inkscape:persp3d-origin="372.04723 : 350.78739 : 1"
       id="perspective4891" />
    <radialGradient
       inkscape:collect="always"
       xlink:href="#linearGradient10288"
       id="radialGradient10294"
       cx="374.93726"
       cy="526.42493"
       fx="374.93726"
       fy="526.42493"
       r="369.28223"
       gradientUnits="userSpaceOnUse"
       gradientTransform="matrix(1.1277724e-7,1.3538083,-1.3539844,9.5397618e-6,1212.771,44.764049)"
       spreadMethod="pad" />
  </defs>
  <sodipodi:namedview
     id="base"
     pagecolor="#ffffff"
     bordercolor="#666666"
     borderopacity="1.0"
     inkscape:pageopacity="0.0"
     inkscape:pageshadow="2"
     inkscape:zoom="0.5"
     inkscape:cx="593.45382"
     inkscape:cy="493.53763"
     inkscape:document-units="px"
     inkscape:current-layer="layer4"
     showgrid="false"
     units="px"
     showguides="true"
     inkscape:object-nodes="true"
     inkscape:snap-center="true"
     inkscape:snap-page="true"
     inkscape:snap-grids="false"
     inkscape:window-width="1387"
     inkscape:window-height="855"
     inkscape:window-x="53"
     inkscape:window-y="1"
     inkscape:window-maximized="1">
    <inkscape:grid
       type="xygrid"
       id="grid8931" />
    <sodipodi:guide
       position="0,369.23077"
       orientation="525.87463,0"
       id="guide8996" />
    <sodipodi:guide
       position="0.062718765,0.062622071"
       orientation="0,374.87454"
       id="guide8998" />
    <sodipodi:guide
       position="500,500.00001"
       orientation="-525.87463,0"
       id="guide9000" />
    <sodipodi:guide
       position="500,500.00001"
       orientation="0,-374.87454"
       id="guide9002" />
  </sodipodi:namedview>
  <metadata
     id="metadata4338">
    <rdf:RDF>
      <cc:Work
         rdf:about="">
        <dc:format>image/svg+xml</dc:format>
        <dc:type
           rdf:resource="http://purl.org/dc/dcmitype/StillImage" />
        <dc:title></dc:title>
      </cc:Work>
    </rdf:RDF>
  </metadata>
  <g
     inkscape:groupmode="layer"
     id="layer5"
     inkscape:label="background gradient"
     style="display:inline;opacity:0.9"
     transform="translate(0,-52.362192)"
     sodipodi:insensitive="true">
    <circle
       style="opacity:1;fill:url(#radialGradient10294);fill-opacity:1;fill-rule:nonzero;stroke:#000000;stroke-width:0.25;stroke-miterlimit:16;stroke-dasharray:none;stroke-opacity:1"
       id="path10266"
       cx="500"
       cy="552.36218"
       r="500" />
  </g>
  <g
     inkscape:groupmode="layer"
     id="layer2"
     inkscape:label="rings"
     style="display:inline"
     transform="translate(0,-52.362192)">
    <path
       style="display:inline;opacity:1;fill:#888888;fill-opacity:1;fill-rule:nonzero;stroke:#000000;stroke-width:0.25;stroke-miterlimit:16;stroke-dasharray:none;stroke-opacity:1"
       d="m 500,471.08972 a 81.271767,81.271767 0 0 0 -5.75,0.20508 81.271767,81.271767 0 0 0 -8.06445,0.97852 81.271767,81.271767 0 0 0 -7.92578,1.77929 81.271767,81.271767 0 0 0 -7.70899,2.56055 81.271767,81.271767 0 0 0 -7.41601,3.31836 81.271767,81.271767 0 0 0 -7.04688,4.04297 81.271767,81.271767 0 0 0 -6.60742,4.72461 81.271767,81.271767 0 0 0 -6.10352,5.36328 81.271767,81.271767 0 0 0 -5.53711,5.94336 81.271767,81.271767 0 0 0 -4.91601,6.4668 81.271767,81.271767 0 0 0 -4.2461,6.92578 81.271767,81.271767 0 0 0 -3.53515,7.31445 81.271767,81.271767 0 0 0 -2.78516,7.63281 81.271767,81.271767 0 0 0 -2.00976,7.8711 81.271767,81.271767 0 0 0 -1.21289,8.03125 81.271767,81.271767 0 0 0 -0.40625,8.11523 81.271767,81.271767 0 0 0 0.20312,5.74805 81.271767,81.271767 0 0 0 0.97852,8.06445 81.271767,81.271767 0 0 0 1.77929,7.92578 81.271767,81.271767 0 0 0 2.5625,7.71094 81.271767,81.271767 0 0 0 3.31836,7.41406 81.271767,81.271767 0 0 0 4.04102,7.04688 81.271767,81.271767 0 0 0 4.72656,6.60742 81.271767,81.271767 0 0 0 5.36133,6.10352 81.271767,81.271767 0 0 0 5.94336,5.53906 81.271767,81.271767 0 0 0 6.4668,4.91601 81.271767,81.271767 0 0 0 6.92578,4.2461 81.271767,81.271767 0 0 0 7.3164,3.5332 81.271767,81.271767 0 0 0 7.63086,2.78516 81.271767,81.271767 0 0 0 7.8711,2.00976 81.271767,81.271767 0 0 0 8.0332,1.21485 81.271767,81.271767 0 0 0 8.11328,0.40625 81.271767,81.271767 0 0 0 5.74805,-0.20508 81.271767,81.271767 0 0 0 8.06445,-0.97852 81.271767,81.271767 0 0 0 7.92773,-1.77929 81.271767,81.271767 0 0 0 7.70899,-2.56055 81.271767,81.271767 0 0 0 7.41601,-3.31836 81.271767,81.271767 0 0 0 7.04493,-4.04297 81.271767,81.271767 0 0 0 6.60937,-4.72461 81.271767,81.271767 0 0 0 6.10352,-5.36133 81.271767,81.271767 0 0 0 5.53711,-5.94531 81.271767,81.271767 0 0 0 4.91601,-6.4668 81.271767,81.271767 0 0 0 4.2461,-6.92578 81.271767,81.271767 0 0 0 3.5332,-7.31445 81.271767,81.271767 0 0 0 2.78711,-7.63281 81.271767,81.271767 0 0 0 2.00976,-7.8711 81.271767,81.271767 0 0 0 1.21289,-8.03125 81.271767,81.271767 0 0 0 0.40625,-8.11328 81.271767,81.271767 0 0 0 -0.20312,-5.75 81.271767,81.271767 0 0 0 -0.97852,-8.06445 81.271767,81.271767 0 0 0 -1.77929,-7.92578 81.271767,81.271767 0 0 0 -2.5625,-7.71094 81.271767,81.271767 0 0 0 -3.31836,-7.41406 81.271767,81.271767 0 0 0 -4.04297,-7.04688 81.271767,81.271767 0 0 0 -4.72461,-6.60742 81.271767,81.271767 0 0 0 -5.36133,-6.10352 81.271767,81.271767 0 0 0 -5.94336,-5.53711 81.271767,81.271767 0 0 0 -6.46875,-4.91796 81.271767,81.271767 0 0 0 -6.92578,-4.2461 81.271767,81.271767 0 0 0 -7.31445,-3.5332 81.271767,81.271767 0 0 0 -7.63086,-2.78516 81.271767,81.271767 0 0 0 -7.8711,-2.00976 81.271767,81.271767 0 0 0 -8.0332,-1.21485 A 81.271767,81.271767 0 0 0 500,471.08972 Z m 0,58.76368 A 22.509604,22.509604 0 0 1 522.50977,552.36316 22.509604,22.509604 0 0 1 500,574.87097 22.509604,22.509604 0 0 1 477.49023,552.36316 22.509604,22.509604 0 0 1 500,529.8534 Z"
       id="path9756"
       inkscape:connector-curvature="0" />
    <path
       style="display:inline;opacity:1;fill:#888888;fill-opacity:1;fill-rule:nonzero;stroke:#000000;stroke-width:0.25;stroke-miterlimit:16;stroke-dasharray:none;stroke-opacity:1"
       d="M 500,433.54871 A 118.81426,118.81426 0 0 0 381.18555,552.36316 118.81426,118.81426 0 0 0 500,671.17566 118.81426,118.81426 0 0 0 618.81445,552.36316 118.81426,118.81426 0 0 0 500,433.54871 Z m 0,37.54101 a 81.271767,81.271767 0 0 1 8.11328,0.40625 81.271767,81.271767 0 0 1 8.0332,1.21485 81.271767,81.271767 0 0 1 7.8711,2.00976 81.271767,81.271767 0 0 1 7.63086,2.78516 81.271767,81.271767 0 0 1 7.31445,3.5332 81.271767,81.271767 0 0 1 6.92578,4.2461 81.271767,81.271767 0 0 1 6.46875,4.91796 81.271767,81.271767 0 0 1 5.94336,5.53711 81.271767,81.271767 0 0 1 5.36133,6.10352 81.271767,81.271767 0 0 1 4.72461,6.60742 81.271767,81.271767 0 0 1 4.04297,7.04688 81.271767,81.271767 0 0 1 3.31836,7.41406 81.271767,81.271767 0 0 1 2.5625,7.71094 81.271767,81.271767 0 0 1 1.77929,7.92578 81.271767,81.271767 0 0 1 0.97852,8.06445 81.271767,81.271767 0 0 1 0.20312,5.75 81.271767,81.271767 0 0 1 -0.40625,8.11328 81.271767,81.271767 0 0 1 -1.21289,8.03125 81.271767,81.271767 0 0 1 -2.00976,7.8711 81.271767,81.271767 0 0 1 -2.78711,7.63281 81.271767,81.271767 0 0 1 -3.5332,7.31445 81.271767,81.271767 0 0 1 -4.2461,6.92578 81.271767,81.271767 0 0 1 -4.91601,6.4668 81.271767,81.271767 0 0 1 -5.53711,5.94531 81.271767,81.271767 0 0 1 -6.10352,5.36133 81.271767,81.271767 0 0 1 -6.60937,4.72461 81.271767,81.271767 0 0 1 -7.04493,4.04297 81.271767,81.271767 0 0 1 -7.41601,3.31836 81.271767,81.271767 0 0 1 -7.70899,2.56055 81.271767,81.271767 0 0 1 -7.92773,1.77929 81.271767,81.271767 0 0 1 -8.06445,0.97852 81.271767,81.271767 0 0 1 -5.74805,0.20508 81.271767,81.271767 0 0 1 -8.11328,-0.40625 81.271767,81.271767 0 0 1 -8.0332,-1.21485 81.271767,81.271767 0 0 1 -7.8711,-2.00976 81.271767,81.271767 0 0 1 -7.63086,-2.78516 81.271767,81.271767 0 0 1 -7.3164,-3.5332 81.271767,81.271767 0 0 1 -6.92578,-4.2461 81.271767,81.271767 0 0 1 -6.4668,-4.91601 81.271767,81.271767 0 0 1 -5.94336,-5.53906 81.271767,81.271767 0 0 1 -5.36133,-6.10352 81.271767,81.271767 0 0 1 -4.72656,-6.60742 81.271767,81.271767 0 0 1 -4.04102,-7.04688 81.271767,81.271767 0 0 1 -3.31836,-7.41406 81.271767,81.271767 0 0 1 -2.5625,-7.71094 81.271767,81.271767 0 0 1 -1.77929,-7.92578 81.271767,81.271767 0 0 1 -0.97852,-8.06445 81.271767,81.271767 0 0 1 -0.20312,-5.74805 81.271767,81.271767 0 0 1 0.40625,-8.11523 81.271767,81.271767 0 0 1 1.21289,-8.03125 81.271767,81.271767 0 0 1 2.00976,-7.8711 81.271767,81.271767 0 0 1 2.78516,-7.63281 81.271767,81.271767 0 0 1 3.53515,-7.31445 81.271767,81.271767 0 0 1 4.2461,-6.92578 81.271767,81.271767 0 0 1 4.91601,-6.4668 81.271767,81.271767 0 0 1 5.53711,-5.94336 81.271767,81.271767 0 0 1 6.10352,-5.36328 81.271767,81.271767 0 0 1 6.60742,-4.72461 81.271767,81.271767 0 0 1 7.04688,-4.04297 81.271767,81.271767 0 0 1 7.41601,-3.31836 81.271767,81.271767 0 0 1 7.70899,-2.56055 81.271767,81.271767 0 0 1 7.92578,-1.77929 81.271767,81.271767 0 0 1 8.06445,-0.97852 81.271767,81.271767 0 0 1 5.75,-0.20508 z"
       id="path9749"
       inkscape:connector-curvature="0" />
    <circle
       style="opacity:1;fill:#57a557;fill-opacity:1;fill-rule:nonzero;stroke:#000000;stroke-width:0.25;stroke-miterlimit:16;stroke-dasharray:none;stroke-opacity:1"
       id="path10376"
       cx="500"
       cy="552.36218"
       r="455" />
    <circle
       style="opacity:1;fill:#a45557;fill-opacity:1;fill-rule:nonzero;stroke:#000000;stroke-width:0.25;stroke-miterlimit:16;stroke-dasharray:none;stroke-opacity:1"
       id="path10390"
       cx="500"
       cy="552.36218"
       r="415" />
    <circle
       style="opacity:1;fill:#00ffff;fill-opacity:1;fill-rule:nonzero;stroke:#000000;stroke-width:0.25;stroke-miterlimit:16;stroke-dasharray:none;stroke-opacity:1"
       id="path10706"
       cx="500"
       cy="552.36218"
       r="375" />
    <circle
       style="opacity:1;fill:#ffff00;fill-opacity:1;fill-rule:nonzero;stroke:#000000;stroke-width:0.25;stroke-miterlimit:16;stroke-dasharray:none;stroke-opacity:1"
       id="path10708"
       cx="500"
       cy="552.36218"
       r="345" />
    <circle
       style="opacity:1;fill:#550000;fill-opacity:1;fill-rule:nonzero;stroke:#000000;stroke-width:0.25;stroke-miterlimit:16;stroke-dasharray:none;stroke-opacity:1"
       id="path12018"
       cx="500"
       cy="552.36218"
       r="315" />
    <circle
       style="opacity:1;fill:#ff0000;fill-opacity:1;fill-rule:nonzero;stroke:#000000;stroke-width:0.25;stroke-miterlimit:16;stroke-dasharray:none;stroke-opacity:1"
       id="path12020"
       cx="500"
       cy="552.36218"
       r="290" />
    <circle
       style="opacity:1;fill:#808000;fill-opacity:1;fill-rule:nonzero;stroke:#000000;stroke-width:0.25;stroke-miterlimit:16;stroke-dasharray:none;stroke-opacity:1"
       id="path12022"
       cx="500"
       cy="552.36218"
       r="265" />
    <circle
       style="opacity:1;fill:#0000ff;fill-opacity:1;fill-rule:nonzero;stroke:#000000;stroke-width:0.25;stroke-miterlimit:16;stroke-dasharray:none;stroke-opacity:1"
       id="path12024"
       cx="500"
       cy="552.36218"
       r="242" />
    <circle
       style="opacity:1;fill:#ffd5d5;fill-opacity:1;fill-rule:nonzero;stroke:#000000;stroke-width:0.25;stroke-miterlimit:16;stroke-dasharray:none;stroke-opacity:1"
       id="path12058"
       cx="500"
       cy="552.36218"
       r="222" />
    <circle
       style="opacity:1;fill:#008000;fill-opacity:1;fill-rule:nonzero;stroke:#000000;stroke-width:0.25;stroke-miterlimit:16;stroke-dasharray:none;stroke-opacity:1"
       id="path12060"
       cx="500"
       cy="552.36218"
       r="204.06503" />
    <circle
       style="opacity:1;fill:#00ffff;fill-opacity:1;fill-rule:nonzero;stroke:#000000;stroke-width:0.25;stroke-miterlimit:16;stroke-dasharray:none;stroke-opacity:1"
       id="path12062"
       cx="500"
       cy="552.36218"
       r="186" />
    <circle
       style="opacity:1;fill:#000080;fill-opacity:1;fill-rule:nonzero;stroke:#000000;stroke-width:0.25;stroke-miterlimit:16;stroke-dasharray:none;stroke-opacity:1"
       id="path12064"
       cx="500"
       cy="552.36218"
       r="169.10568" />
    <circle
       style="opacity:1;fill:#0000ff;fill-opacity:1;fill-rule:nonzero;stroke:#000000;stroke-width:0.25;stroke-miterlimit:16;stroke-dasharray:none;stroke-opacity:1"
       id="path12066"
       cx="500"
       cy="552.36218"
       r="155" />
    <circle
       style="opacity:1;fill:#800080;fill-opacity:1;fill-rule:nonzero;stroke:#000000;stroke-width:0.25;stroke-miterlimit:16;stroke-dasharray:none;stroke-opacity:1;enable-background:new"
       id="path12068"
       cx="500"
       cy="500"
       r="144"
       transform="translate(0,52.362192)" />
    <circle
       style="opacity:1;fill:#ff00ff;fill-opacity:1;fill-rule:nonzero;stroke:#000000;stroke-width:0.25;stroke-miterlimit:16;stroke-dasharray:none;stroke-opacity:1"
       id="path12071"
       cx="500"
       cy="552.36218"
       r="132" />
    <circle
       style="opacity:1;fill:#2b0000;fill-opacity:1;fill-rule:nonzero;stroke:#000000;stroke-width:0.25;stroke-miterlimit:16;stroke-dasharray:none;stroke-opacity:1"
       id="path12073"
       cx="500"
       cy="552.36218"
       r="121" />
    <circle
       style="opacity:1;fill:#ffffff;fill-opacity:1;fill-rule:nonzero;stroke:#000000;stroke-width:0.25;stroke-miterlimit:16;stroke-dasharray:none;stroke-opacity:1"
       id="path12075"
       cx="500"
       cy="552.36218"
       r="111" />
    <circle
       style="opacity:1;fill:#6699ff;fill-opacity:1;fill-rule:nonzero;stroke:#000000;stroke-width:0.25;stroke-miterlimit:16;stroke-dasharray:none;stroke-opacity:1"
       id="path12077"
       cx="500"
       cy="552.36218"
       r="102" />
    <circle
       style="opacity:1;fill:#d0980c;fill-opacity:1;fill-rule:nonzero;stroke:#000000;stroke-width:0.25;stroke-miterlimit:16;stroke-dasharray:none;stroke-opacity:1"
       id="path12079"
       cx="500"
       cy="552.36218"
       r="94" />
    <circle
       style="opacity:1;fill:#64b034;fill-opacity:1;fill-rule:nonzero;stroke:#000000;stroke-width:0.25;stroke-miterlimit:16;stroke-dasharray:none;stroke-opacity:1"
       id="path12081"
       cx="500"
       cy="552.36218"
       r="87" />
  </g>
  <g
     inkscape:groupmode="layer"
     id="layer4"
     inkscape:label="pies"
     style="display:inline"
     transform="translate(0,-52.362192)">
    <path
       style="opacity:1;fill:#888888;fill-opacity:1;fill-rule:nonzero;stroke:#000000;stroke-width:0.25;stroke-miterlimit:16;stroke-dasharray:none;stroke-opacity:1"
       id="path10300"
       sodipodi:type="arc"
       sodipodi:cx="500"
       sodipodi:cy="552.36218"
       sodipodi:rx="500"
       sodipodi:ry="500"
       sodipodi:start="0"
       sodipodi:end="0.087266463"
       d="m 1000,552.36218 a 500,500 0 0 1 -1.90265,43.57787 L 500,552.36218 Z"
       inkscape:transform-center-x="-250"
       inkscape:transform-center-y="51.977923"
       inkscape:tile-cx="500"
       inkscape:tile-cy="469.811"
       inkscape:tile-w="500.13589"
       inkscape:tile-h="43.83829"
       inkscape:tile-x0="499.98911"
       inkscape:tile-y0="499.87499" />
    <use
       x="0"
       y="0"
       inkscape:tiled-clone-of="#path10300"
       xlink:href="#path10300"
       id="use11994"
       inkscape:transform-center-x="-250"
       inkscape:transform-center-y="51.977923"
       width="100%"
       height="100%" />
    <use
       x="0"
       y="0"
       inkscape:tiled-clone-of="#path10300"
       xlink:href="#path10300"
       transform="matrix(0.98480775,0.17364818,-0.17364818,0.98480775,103.51281,-78.432466)"
       id="use11996"
       inkscape:transform-center-x="-231.86707"
       inkscape:transform-center-y="93.639611"
       width="100%"
       height="100%" />
  </g>
  <g
     inkscape:groupmode="layer"
     id="layer9"
     inkscape:label="comments"
     transform="translate(0,-24)"
     style="display:inline"
     sodipodi:insensitive="true">
    <text
       xml:space="preserve"
       style="font-style:normal;font-variant:normal;font-weight:normal;font-stretch:normal;font-size:40px;line-height:125%;font-family:sans-serif;-inkscape-font-specification:'sans-serif, Normal';text-align:start;letter-spacing:0px;word-spacing:0px;writing-mode:lr-tb;text-anchor:start;fill:#000000;fill-opacity:1;stroke:none;stroke-width:1px;stroke-linecap:butt;stroke-linejoin:miter;stroke-opacity:1"
       x="-2.2070312"
       y="915.67969"
       id="text10676"
       sodipodi:linespacing="125%"><tspan
         sodipodi:role="line"
         id="tspan10698"
         x="-2.2070312"
         y="915.67969">divide the radius to 20 rings.</tspan><tspan
         sodipodi:role="line"
         id="tspan10700"
         x="-2.2070312"
         y="965.67969">use 12 outbound rings</tspan><tspan
         sodipodi:role="line"
         id="tspan10702"
         x="-2.2070312"
         y="1015.6797">leaving centre unused</tspan></text>
  </g>
</svg>
