<?xml version="1.0" encoding="UTF-8" standalone="no"?>
<!-- Created with Inkscape (http://www.inkscape.org/) -->

<svg
   xmlns:dc="http://purl.org/dc/elements/1.1/"
   xmlns:cc="http://creativecommons.org/ns#"
   xmlns:rdf="http://www.w3.org/1999/02/22-rdf-syntax-ns#"
   xmlns:svg="http://www.w3.org/2000/svg"
   xmlns="http://www.w3.org/2000/svg"
   xmlns:sodipodi="http://sodipodi.sourceforge.net/DTD/sodipodi-0.dtd"
   xmlns:inkscape="http://www.inkscape.org/namespaces/inkscape"
   width="210mm"
   height="297mm"
   viewBox="0 0 210 297"
   version="1.1"
   id="svg229"
   inkscape:version="0.92.2 5c3e80d, 2017-08-06"
   sodipodi:docname="toliet.svg">
  <defs
     id="defs223" />
  <sodipodi:namedview
     id="base"
     pagecolor="#ffffff"
     bordercolor="#666666"
     borderopacity="1.0"
     inkscape:pageopacity="0.0"
     inkscape:pageshadow="2"
     inkscape:zoom="0.98994949"
     inkscape:cx="368.94282"
     inkscape:cy="758.02498"
     inkscape:document-units="mm"
     inkscape:current-layer="layer1"
     showgrid="false"
     showguides="true"
     inkscape:guide-bbox="true"
     inkscape:window-width="1440"
     inkscape:window-height="855"
     inkscape:window-x="0"
     inkscape:window-y="1"
     inkscape:window-maximized="1"
     inkscape:snap-others="false"
     inkscape:snap-bbox="true"
     inkscape:object-nodes="false"
     inkscape:snap-nodes="true"
     inkscape:bbox-nodes="true">
    <sodipodi:guide
       position="0,277"
       orientation="0,1"
       id="guide231"
       inkscape:locked="false"
       inkscape:label=""
       inkscape:color="rgb(0,0,0)" />
    <sodipodi:guide
       position="0,20"
       orientation="0,1"
       id="guide233"
       inkscape:locked="false"
       inkscape:label=""
       inkscape:color="rgb(0,0,0)" />
    <sodipodi:guide
       position="20,0"
       orientation="1,0"
       id="guide235"
       inkscape:locked="false"
       inkscape:label=""
       inkscape:color="rgb(0,0,0)" />
    <sodipodi:guide
       position="190,0"
       orientation="1,0"
       id="guide237"
       inkscape:locked="false"
       inkscape:label=""
       inkscape:color="rgb(0,0,0)" />
    <sodipodi:guide
       position="105,0"
       orientation="1,0"
       id="guide1145"
       inkscape:locked="false"
       inkscape:label=""
       inkscape:color="rgb(255,0,0)" />
    <sodipodi:guide
       position="95,0"
       orientation="1,0"
       id="guide1147"
       inkscape:locked="false"
       inkscape:label=""
       inkscape:color="rgb(0,0,255)" />
    <sodipodi:guide
       position="115,0"
       orientation="1,0"
       id="guide1149"
       inkscape:locked="false"
       inkscape:label=""
       inkscape:color="rgb(0,0,255)" />
    <sodipodi:guide
       position="0,185"
       orientation="0,1"
       id="guide1302"
       inkscape:locked="false"
       inkscape:label=""
       inkscape:color="rgb(0,0,255)" />
    <sodipodi:guide
       position="0,165"
       orientation="0,1"
       id="guide1304"
       inkscape:locked="false"
       inkscape:label=""
       inkscape:color="rgb(0,0,0)" />
    <sodipodi:guide
       position="0,145"
       orientation="0,1"
       id="guide1306"
       inkscape:locked="false"
       inkscape:label=""
       inkscape:color="rgb(0,0,255)" />
  </sodipodi:namedview>
  <metadata
     id="metadata226">
    <rdf:RDF>
      <cc:Work
         rdf:about="">
        <dc:format>image/svg+xml</dc:format>
        <dc:type
           rdf:resource="http://purl.org/dc/dcmitype/StillImage" />
        <dc:title />
      </cc:Work>
    </rdf:RDF>
  </metadata>
  <g
     inkscape:label="Layer 1"
     inkscape:groupmode="layer"
     id="layer1">
    <path
       style="fill:#000002;stroke-width:0.49884233"
       d="m 93.751393,111.51995 c -0.583147,0 -1.104436,-0.41104 -1.222164,-1.00517 L 83.550068,65.162534 c -0.13369,-0.675433 0.30579,-1.331909 0.981223,-1.465598 0.674434,-0.133192 1.33141,0.305291 1.465599,0.981222 l 8.979161,45.352252 c 0.13369,0.67543 -0.30579,1.33191 -0.981223,1.46559 -0.08131,0.016 -0.163121,0.024 -0.243435,0.024 z m -52.220809,0 c -0.08031,0 -0.162123,-0.008 -0.243435,-0.024 -0.675433,-0.13368 -1.114912,-0.78966 -0.981222,-1.46559 l 8.979161,-45.352252 c 0.134189,-0.675433 0.791663,-1.113416 1.465599,-0.981222 0.675433,0.133689 1.114912,0.789667 0.981222,1.465598 l -8.979161,45.352246 c -0.117727,0.59413 -0.639017,1.00517 -1.222164,1.00517 z m 38.500151,0 c -0.649492,0 -1.197221,-0.50283 -1.243114,-1.16031 l -3.15917,-45.352246 c -0.04789,-0.687404 0.470409,-1.283022 1.157315,-1.330912 0.689899,-0.04838 1.283023,0.470409 1.330911,1.157315 l 3.159169,45.352253 c 0.04789,0.6874 -0.470409,1.28302 -1.157314,1.33091 -0.02943,0.002 -0.05887,0.003 -0.0878,0.003 z m -24.778994,0 c -0.02893,0 -0.05837,-10e-4 -0.0878,-0.003 -0.686905,-0.0479 -1.205202,-0.64351 -1.157313,-1.33091 l 3.159168,-45.352253 c 0.04789,-0.686906 0.643506,-1.205702 1.330911,-1.157315 0.686906,0.04789 1.205203,0.643508 1.157315,1.330912 l -3.159169,45.352246 c -0.04589,0.65748 -0.593622,1.16031 -1.243115,1.16031 z m 12.389247,0 c -0.688901,0 -1.247106,-0.55821 -1.247106,-1.2471 V 64.920596 c 0,-0.688902 0.558205,-1.247106 1.247106,-1.247106 0.688901,0 1.247105,0.558204 1.247105,1.247106 v 45.352254 c 0,0.68889 -0.558204,1.2471 -1.247105,1.2471 z m -46.374376,0 c -0.688902,0 -1.247106,-0.55821 -1.247106,-1.2471 V 46.494359 c -0.04489,-0.880955 -0.474399,-12.248075 6.723896,-19.873877 4.147374,-4.392805 9.965872,-6.620635 17.293865,-6.620635 8.35511,0 14.811626,2.276716 19.190962,6.766796 4.755463,4.876184 5.610479,10.896712 5.758137,13.24975 10.052172,0.630537 18.036642,9.009092 18.036642,19.216903 0,0.688899 -0.558204,1.247103 -1.247106,1.247103 H 49.760485 c -0.688901,0 -1.247106,-0.558204 -1.247106,-1.247103 0,-10.184864 7.948055,-18.548454 17.9678,-19.212912 -0.164617,-2.106611 -0.98671,-7.374885 -5.061752,-11.536726 -3.892466,-3.974277 -9.740894,-5.9896 -17.38216,-5.9896 -6.607665,0 -11.811589,1.960451 -15.468602,5.826977 -6.595194,6.972819 -6.062929,17.959322 -6.056943,18.069066 9.98e-4,0.02295 0.002,0.04739 0.002,0.07084 v 63.811909 c 0,0.68889 -0.558204,1.2471 -1.247106,1.2471 z M 51.053484,57.98619 h 33.429917 c -0.640513,-8.661399 -7.892682,-15.513996 -16.71471,-15.513996 -8.822025,0 -16.074694,6.852597 -16.715207,15.513996 z"
       id="path145"
       inkscape:connector-curvature="0" />
    <path
       d="m 178.31378,111.91369 h -57.21217 c -0.34349,0 -0.66677,-0.17329 -0.87454,-0.46904 -0.20776,-0.29527 -0.27541,-0.67885 -0.18317,-1.03633 l 4.42016,-17.156757 c -3.90229,-4.985144 -6.13982,-11.445276 -6.36955,-18.366846 h -1.99638 C 115.49152,74.884717 115,74.353494 115,73.697891 v -0.830778 c 0,-2.814202 2.11806,-5.103352 4.72193,-5.103352 h 38.0574 c 2.36316,0 4.3266,1.886104 4.66878,4.33856 0.58421,-0.32424 1.08056,-0.830776 1.42888,-1.481632 0.29122,-0.544041 0.44495,-1.213412 0.44495,-1.93595 V 34.29527 h -0.86048 c -0.6066,0 -1.09812,-0.531224 -1.09812,-1.186826 v -3.441797 c 0,-2.028522 1.52727,-3.679159 3.40418,-3.679159 h 7.19358 c -0.15418,-0.422984 -0.23852,-0.883474 -0.23852,-1.364851 0,-2.061754 1.55187,-3.738501 3.45909,-3.738501 1.90722,0 3.45909,1.676747 3.45909,3.738501 0,0.481377 -0.0848,0.941867 -0.23852,1.364851 h 7.19358 c 1.87691,0 3.40418,1.650637 3.40418,3.679159 v 3.441797 c 0,0.655602 -0.49152,1.186826 -1.09812,1.186826 h -0.86049 v 31.073002 c 0,3.542438 -1.03048,6.617268 -3.24341,9.676905 -0.34393,0.476153 -0.7419,1.009276 -1.1359,1.537177 -0.32724,0.438177 -0.65185,0.872554 -0.93911,1.266105 -0.29166,0.399723 -0.59826,0.803244 -0.91321,1.217684 -2.1835,2.871644 -4.65779,6.126395 -5.25869,12.436512 -0.50293,5.284698 2.70051,18.462265 2.73301,18.594245 l 0.0808,0.28483 c 0.101,0.35985 0.0387,0.74961 -0.16867,1.05202 -0.20777,0.30191 -0.53501,0.47994 -0.88245,0.47994 z m -55.7666,-2.37365 h 54.33861 c -0.80515,-3.48452 -2.97504,-13.496113 -2.51953,-18.279972 0.66809,-7.021264 3.48368,-10.725109 5.74625,-13.70072 0.30527,-0.401621 0.60309,-0.7928 0.88597,-1.18018 0.29209,-0.400196 0.62153,-0.841696 0.95404,-1.286993 0.38654,-0.518406 0.77747,-1.041084 1.11525,-1.508219 1.89493,-2.620509 2.77737,-5.231053 2.77737,-8.215684 V 34.29527 h -19.32695 v 34.388994 c 0,1.139353 -0.25608,2.220314 -0.74013,3.124675 -0.85346,1.59462 -2.31879,2.681753 -3.95983,2.987953 -0.12826,0.05648 -0.26839,0.08783 -0.41509,0.08783 h -41.11151 c 0.23501,6.567895 2.41807,12.666758 6.20791,17.282085 0.001,0.0018 0.003,0.0042 0.005,0.0062 0.005,0.0057 0.009,0.01133 0.0136,0.01699 0.0795,0.100164 5.39531,6.668539 15.55733,6.668539 0.6066,0 1.09812,0.53122 1.09812,1.186824 0,0.65559 -0.49152,1.18682 -1.09812,1.18682 -8.21088,0 -13.48846,-3.835814 -15.83492,-6.028595 z m -3.37475,-37.028975 h 41.11062 c -0.16207,-1.337314 -1.2233,-2.373652 -2.50415,-2.373652 h -38.05741 c -1.28129,0 -2.34252,1.036338 -2.50416,2.373652 z m 67.7704,-40.589449 h 0.86048 v -2.254969 c 0,-0.720165 -0.54159,-1.305507 -1.20793,-1.305507 h -20.8283 c -0.6659,0 -1.20794,0.585342 -1.20794,1.305507 v 2.254969 z m -10.7616,-8.663826 c -0.69621,0 -1.26285,0.6124 -1.26285,1.364847 0,0.752448 0.56664,1.364851 1.26285,1.364851 0.69621,0 1.26284,-0.612403 1.26284,-1.364851 0,-0.752447 -0.56619,-1.364847 -1.26284,-1.364847 z"
       id="path1298"
       inkscape:connector-curvature="0"
       style="stroke-width:0.45664513" />
    <path
       style="fill:none;fill-rule:evenodd;stroke:#000000;stroke-width:0.064;stroke-linecap:butt;stroke-linejoin:miter;stroke-miterlimit:4;stroke-dasharray:none;stroke-opacity:1"
       d="m 20,131.968 h 5"
       id="path1308"
       inkscape:connector-curvature="0"
       sodipodi:nodetypes="cc" />
    <path
       style="fill:none;fill-rule:evenodd;stroke:#000000;stroke-width:0.064;stroke-linecap:butt;stroke-linejoin:miter;stroke-miterlimit:4;stroke-dasharray:none;stroke-opacity:1"
       d="m 185,131.968 h 5"
       id="path1308-7"
       inkscape:connector-curvature="0"
       sodipodi:nodetypes="cc" />
  </g>
</svg>
